<?xml version="1.0" encoding="UTF-8"?>
<svg
    xmlns="http://www.w3.org/2000/svg"
    viewBox="0 0 64 64"
    width="200"
    height="200">
  <!-- Tail -->
  <path d="M50 40c6 4 10 10 8 14s-8 4-14 0-10-10-8-14 8-4 14 0z"
        fill="#d2691e" stroke="#000" stroke-width="1"/>
  <path d="M50 40c-2 1-4 3-6 4" stroke="#fff" stroke-width="2"/>
  <path d="M54 44c-2 1-4 3-6 4" stroke="#fff" stroke-width="2"/>
  
  <!-- Body -->
  <ellipse cx="32" cy="40" rx="14" ry="10"
           fill="#d2691e" stroke="#000" stroke-width="1"/>
  
  <!-- Head -->
  <circle cx="32" cy="24" r="10"
          fill="#d2691e" stroke="#000" stroke-width="1"/>
  
  <!-- Face mask -->
  <path d="M24 22c2 4 12 4 16 0" fill="#fff"/>
  
  <!-- Eyes -->
  <circle cx="28" cy="24" r="1.5" fill="#000"/>
  <circle cx="36" cy="24" r="1.5" fill="#000"/>
  
  <!-- Nose -->
  <circle cx="32" cy="28" r="1" fill="#000"/>
  
  <!-- Ears -->
  <polygon points="24,16 20,10 26,14" fill="#fff" stroke="#000" stroke-width="1"/>
  <polygon points="40,16 44,10 38,14" fill="#fff" stroke="#000" stroke-width="1"/>
</svg>
